<svg width="52" height="52" viewBox="0 0 52 52" fill="none" xmlns="http://www.w3.org/2000/svg">
<path d="M37.8714 18.6203C35.5317 16.2768 31.7235 16.2768 29.38 18.6203L27.0741 20.9262L24.847 23.157C24.5466 23.4537 24.0659 23.4537 23.7692 23.157C23.5739 22.9617 23.5438 22.7364 23.5438 22.6162C23.5438 22.4998 23.5739 22.2744 23.7692 22.0792L26.3943 19.454L23.6227 16.6861L20.9975 19.3113C20.115 20.1938 19.6305 21.3694 19.6305 22.6162C19.6305 23.8668 20.115 25.0423 20.9975 25.9249C22.8228 27.7501 25.7897 27.7501 27.6149 25.9249L32.1517 21.3881C32.9666 20.5732 34.2886 20.5732 35.1036 21.3881C35.9148 22.1993 35.9148 23.5251 35.1036 24.34L25.3428 34.0971L19.5592 28.3134C16.6411 25.3991 16.6185 20.6708 19.4803 17.7227L22.0716 15.1351L19.3038 12.3634L16.7913 14.8759H16.7875L16.7162 14.951L16.6486 15.0149L16.6523 15.0186C12.3221 19.4991 12.3672 26.661 16.7875 31.0851L25.3428 39.6366L27.4835 37.4996L28.1106 36.8687L37.8714 27.1079C40.2112 24.7682 40.2112 20.96 37.8714 18.6203ZM52 26C52 40.3614 40.3577 52 26 52C11.6386 52 0 40.3614 0 26C0 11.6424 11.6386 0 26 0C40.3577 0 52 11.6424 52 26Z" fill="#63C2E7"/>
</svg>
