<svg width="58" height="58" viewBox="0 0 58 58" fill="none" xmlns="http://www.w3.org/2000/svg">
<path d="M41.5245 20.4164C38.9591 17.8468 34.7836 17.8468 32.214 20.4164L29.6857 22.9447L27.2438 25.3907C26.9143 25.7161 26.3873 25.7161 26.062 25.3907C25.8478 25.1766 25.8149 24.9295 25.8149 24.7978C25.8149 24.6701 25.8478 24.423 26.062 24.2089L28.9403 21.3305L25.9014 18.2957L23.023 21.174C22.0553 22.1417 21.5241 23.4306 21.5241 24.7978C21.5241 26.169 22.0553 27.4579 23.023 28.4256C25.0242 30.4269 28.2774 30.4269 30.2786 28.4256L35.253 23.4512C36.1466 22.5576 37.5961 22.5576 38.4897 23.4512C39.3791 24.3407 39.3791 25.7943 38.4897 26.6879L27.7873 37.3861L21.4458 31.0446C18.2462 27.8491 18.2215 22.6647 21.3594 19.4322L24.2007 16.595L21.1658 13.556L18.411 16.3109H18.4068L18.3286 16.3932L18.2545 16.4632L18.2586 16.4673C13.5107 21.3799 13.5601 29.2327 18.4068 34.0835L27.7873 43.4599L30.1345 41.1169L30.8222 40.4251L41.5245 29.7227C44.09 27.1573 44.09 22.9818 41.5245 20.4164ZM57.0159 28.508C57.0159 44.2547 44.2505 57.0159 28.508 57.0159C12.7613 57.0159 0 44.2547 0 28.508C0 12.7654 12.7613 0 28.508 0C44.2505 0 57.0159 12.7654 57.0159 28.508Z" fill="black"/>
</svg>
