<svg width="622" height="122" viewBox="0 0 622 122" fill="none" xmlns="http://www.w3.org/2000/svg">
<mask id="mask0_37_222" style="mask-type:alpha" maskUnits="userSpaceOnUse" x="0" y="0" width="622" height="122">
<rect width="622" height="122" fill="#EF4870"/>
</mask>
<g mask="url(#mask0_37_222)">
<rect width="622" height="122" fill="#EF4870"/>
<path d="M359.286 19.1268C360.01 22.138 360.183 24.8297 359.807 27.203C359.43 29.5785 358.78 31.7717 357.857 33.7838C356.934 35.7959 355.893 37.6912 354.734 39.4706C353.573 41.2512 352.498 43.0639 351.505 44.9077C350.513 46.7525 349.804 48.6413 349.384 50.5773C348.962 52.5133 349.02 54.668 349.559 57.037L334.37 59.331L333.461 52.4468C333.246 51.3213 333.344 50.0563 333.758 48.6574C334.17 47.2574 334.735 45.7567 335.453 44.1551C336.169 42.5526 337.007 40.8546 337.963 39.0601C338.919 37.2677 339.793 35.4411 340.582 33.5834C341.712 31.3183 342.311 29.3759 342.379 27.7615C342.446 26.1461 342.241 24.7954 341.765 23.7095C341.254 22.4059 340.497 21.4615 339.493 20.8773C338.489 20.2931 337.486 20.0776 336.482 20.2288C334.167 20.5782 332.728 21.5977 332.157 23.2882C331.586 24.9787 331.734 27.4978 332.599 30.8434L316.624 33.2575C316.047 30.0459 315.87 26.9629 316.093 24.0085C316.316 21.0574 317.181 18.3753 318.69 15.9634C320.201 13.5525 322.289 11.4997 324.957 9.80279C327.625 8.10801 331.054 6.94278 335.244 6.30924C337.864 5.91369 340.406 5.8976 342.872 6.261C345.338 6.62439 347.618 7.30617 349.712 8.30418C351.805 9.30325 353.667 10.6153 355.298 12.2415C356.927 13.8688 358.161 15.8208 358.998 18.1009L359.288 19.1268H359.286ZM336.598 82L334.364 65.4863L350.994 62.9747L353.228 79.4884L336.598 82Z" fill="#DC4B6C"/>
<path d="M246.893 46.9368C243.775 44.3279 241.486 41.6261 240.027 38.83C238.565 36.0325 237.533 33.2126 236.93 30.3715C236.328 27.529 235.94 24.7188 235.768 21.9368C235.595 19.1534 235.31 16.4038 234.913 13.6837C234.515 10.9636 233.782 8.42084 232.708 6.05115C231.637 3.68145 229.89 1.45529 227.47 -0.621713L241.658 -14.9074L248 -8.36262C249.108 -7.34382 249.994 -5.93523 250.653 -4.13685C251.314 -2.33847 251.893 -0.316349 252.392 1.93373C252.891 4.18241 253.338 6.62527 253.737 9.26515C254.133 11.9008 254.644 14.5083 255.267 17.0834C255.85 20.3537 256.739 22.8698 257.931 24.6245C259.124 26.3793 260.396 27.6429 261.746 28.4169C263.304 29.3921 264.84 29.7959 266.351 29.6271C267.865 29.4582 269.091 28.9024 270.028 27.9581C272.19 25.7812 272.907 23.5818 272.185 21.3557C271.463 19.1281 269.337 16.5881 265.81 13.7372L280.731 -1.28872C283.85 1.64526 286.449 4.75794 288.525 8.04511C290.601 11.3295 291.788 14.832 292.086 18.554C292.383 22.2745 291.792 26.0711 290.312 29.9423C288.831 33.8134 286.135 37.7212 282.221 41.6613C279.774 44.1252 277.112 46.1291 274.233 47.6713C271.355 49.215 268.421 50.2789 265.437 50.8628C262.453 51.4454 259.467 51.5158 256.479 51.0781C253.49 50.6363 250.665 49.5429 248 47.7938L246.893 46.9396V46.9368ZM221.578 -37.0579L236.847 -21.3988L221.313 -5.75792L206.042 -21.4184L221.576 -37.0579H221.578Z" fill="#DC4B6C"/>
<path d="M444.019 7.667C445.811 4.01786 447.89 1.1515 450.258 -0.931023C452.628 -3.01662 455.121 -4.69077 457.737 -5.95179C460.355 -7.21314 462.992 -8.25908 465.653 -9.08787C468.315 -9.91836 470.918 -10.8501 473.465 -11.8828C476.012 -12.9169 478.308 -14.234 480.354 -15.8406C482.401 -17.4445 484.147 -19.6716 485.588 -22.5163L502.84 -12.1359L497.993 -4.41794C497.267 -3.10001 496.11 -1.90385 494.52 -0.836327C492.93 0.233934 491.104 1.27816 489.037 2.2974C486.972 3.31768 484.706 4.33361 482.237 5.34859C479.771 6.3612 477.36 7.47778 475.007 8.696C471.969 10.04 469.737 11.5025 468.317 13.0776C466.896 14.654 465.972 16.1901 465.541 17.6861C464.965 19.431 464.938 21.0193 465.462 22.4468C465.986 23.877 466.818 24.935 467.958 25.6204C470.587 27.2027 472.893 27.3749 474.884 26.1441C476.876 24.9129 478.837 22.2436 480.766 18.1392L498.911 29.0554C496.804 32.7833 494.399 36.0481 491.701 38.8474C489.005 41.6447 485.885 43.6316 482.341 44.8071C478.798 45.9808 474.97 46.3104 470.858 45.7941C466.745 45.2764 462.308 43.5881 457.55 40.724C454.574 38.934 451.995 36.8254 449.812 34.3964C447.627 31.9679 445.896 29.3718 444.618 26.6123C443.342 23.8526 442.564 20.9695 442.277 17.9628C441.995 14.9551 442.385 11.9509 443.45 8.9464L444.016 7.66767L444.019 7.667ZM519.575 -36.9106L508 -18.3529L489.112 -29.7186L500.688 -48.2781L519.575 -36.912L519.575 -36.9106Z" fill="#DC4B6C"/>
<path d="M173.009 30.713C172.149 34.6869 170.822 37.9699 169.026 40.5619C167.229 43.1581 165.213 45.3829 162.978 47.2376C160.743 49.0922 158.435 50.7429 156.055 52.1894C153.673 53.636 151.372 55.1684 149.149 56.7839C146.928 58.4021 145.017 60.2329 143.417 62.2846C141.818 64.3348 140.66 66.917 139.946 70.0255L120.703 64.104L123.548 55.4442C123.935 53.9906 124.771 52.5511 126.055 51.1312C127.34 49.71 128.861 48.2564 130.62 46.769C132.378 45.2816 134.333 43.7492 136.484 42.1703C138.632 40.5928 140.703 38.9296 142.693 37.1804C145.318 35.1442 147.13 33.1868 148.129 31.3167C149.128 29.4437 149.654 27.7298 149.712 26.1749C149.851 24.3427 149.494 22.7948 148.641 21.534C147.789 20.2717 146.725 19.4457 145.455 19.0545C142.523 18.1511 140.242 18.5395 138.607 20.214C136.971 21.8886 135.711 24.952 134.828 29.4015L114.59 23.1748C115.737 19.0475 117.284 15.3016 119.229 11.9328C121.172 8.56821 123.72 5.88753 126.876 3.89355C130.032 1.90098 133.666 0.65985 137.783 0.168744C141.898 -0.319548 146.61 0.251777 151.917 1.88411C155.235 2.90572 158.244 4.33118 160.947 6.16333C163.652 7.99408 165.957 10.0978 167.861 12.4675C169.764 14.84 171.215 17.4503 172.215 20.2999C173.213 23.1508 173.559 26.1608 173.251 29.334L173.009 30.7116V30.713ZM110.432 92.1815L117.194 71.3792L138.262 77.862L131.5 98.6658L110.432 92.1815Z" fill="#DC4B6C"/>
<path d="M381.311 30.9022C380.989 29.5132 380.917 28.272 381.095 27.1793C381.271 26.0859 381.573 25.0781 381.997 24.1532C382.421 23.2291 382.899 22.3581 383.43 21.5417C383.962 20.7245 384.455 19.8922 384.911 19.0461C385.367 18.1986 385.693 17.3304 385.889 16.4394C386.086 15.549 386.065 14.5558 385.826 13.4638L392.735 12.4457L393.131 15.6188C393.226 16.1382 393.178 16.7198 392.987 17.3635C392.796 18.0073 392.535 18.6966 392.205 19.4329C391.875 20.1685 391.49 20.949 391.051 21.7731C390.612 22.5964 390.21 23.4356 389.847 24.2893C389.327 25.3302 389.051 26.2226 389.015 26.9665C388.981 27.7097 389.07 28.3321 389.284 28.8349C389.513 29.4372 389.855 29.8737 390.309 30.1452C390.763 30.4166 391.22 30.5189 391.676 30.4519C392.729 30.2964 393.386 29.8302 393.649 29.0525C393.913 28.2754 393.852 27.115 393.468 25.5713L400.734 24.5007C400.988 25.9816 401.059 27.4017 400.951 28.7617C400.843 30.121 400.442 31.3553 399.75 32.4618C399.058 33.5691 398.104 34.5105 396.887 35.2848C395.671 36.0584 394.109 36.5861 392.203 36.8672C391.012 37.0433 389.857 37.044 388.737 36.8707C387.618 36.6966 386.583 36.3775 385.633 35.9126C384.685 35.4471 383.842 34.8379 383.105 34.085C382.368 33.3315 381.813 32.4287 381.438 31.376L381.309 30.9022H381.311ZM391.78 2L392.754 9.61166L385.19 10.7265L384.216 3.11481L391.78 2Z" fill="#DC4B6C"/>
<path d="M224.777 57.3999C225.06 60.2926 224.872 62.818 224.214 64.9763C223.558 67.1359 222.67 69.0888 221.554 70.8404C220.436 72.5908 219.225 74.2188 217.92 75.7219C216.613 77.2266 215.38 78.7722 214.22 80.3561C213.06 81.9428 212.159 83.6082 211.517 85.3524C210.876 87.0965 210.651 89.1077 210.843 91.379L196.451 91.5474L196.498 85.0317C196.446 83.9568 196.699 82.7951 197.264 81.5473C197.829 80.2995 198.547 78.9786 199.42 77.5813C200.292 76.1857 201.289 74.7159 202.408 73.1722C203.527 71.6301 204.575 70.0451 205.546 68.421C206.891 66.4614 207.697 64.7348 207.968 63.2423C208.24 61.7512 208.224 60.4694 207.923 59.3967C207.619 58.119 207.039 57.1428 206.184 56.4708C205.329 55.7988 204.423 55.4671 203.474 55.4777C201.281 55.5036 199.811 56.2666 199.064 57.7638C198.315 59.2611 198.126 61.6211 198.495 64.8436L183.358 65.0198C183.239 61.9607 183.476 59.0725 184.063 56.3557C184.653 53.64 185.803 51.2582 187.517 49.2114C189.229 47.1633 191.434 45.5251 194.129 44.2928C196.823 43.0633 200.155 42.4237 204.125 42.3767C206.606 42.3468 208.967 42.661 211.209 43.318C213.449 43.9751 215.477 44.9035 217.29 46.1009C219.103 47.3012 220.662 48.7606 221.964 50.4825C223.265 52.2059 224.157 54.18 224.639 56.4088L224.775 57.4016L224.777 57.3999ZM195.585 112.901L195.65 97.2645L211.405 97.081L211.341 112.719L195.586 112.902L195.585 112.901Z" fill="#DC4B6C"/>
<path d="M87.0175 46.8307C85.5642 45.3005 84.544 43.7703 83.9557 42.2411C83.3675 40.7109 83.0029 39.196 82.8599 37.6944C82.7179 36.1929 82.6832 34.7189 82.7588 33.2745C82.8344 31.8282 82.8497 30.393 82.8058 28.9661C82.7608 27.5391 82.5331 26.1827 82.1205 24.8968C81.7079 23.6109 80.9389 22.3597 79.8145 21.1454L87.9734 14.6147L90.8565 18.3671C91.3671 18.9589 91.7399 19.7378 91.9748 20.7048C92.2087 21.6718 92.3874 22.7492 92.512 23.939C92.6366 25.1278 92.7224 26.4157 92.7714 27.7998C92.8204 29.1838 92.9287 30.5586 93.0982 31.9242C93.2044 33.6466 93.5149 34.9959 94.0255 35.9731C94.5361 36.9483 95.1173 37.675 95.7688 38.1554C96.5144 38.7514 97.2824 39.0509 98.0708 39.0529C98.8602 39.056 99.5261 38.8403 100.065 38.41C101.308 37.4144 101.809 36.3206 101.568 35.1288C101.328 33.9369 100.381 32.5008 98.7315 30.8213L107.312 23.9533C108.746 25.6522 109.901 27.4113 110.779 29.2298C111.654 31.0482 112.06 32.927 111.993 34.864C111.927 36.8021 111.398 38.7258 110.407 40.6363C109.414 42.5457 107.793 44.4009 105.542 46.202C104.135 47.3285 102.645 48.2045 101.069 48.8311C99.4934 49.4566 97.9196 49.8318 96.3469 49.9565C94.7741 50.0802 93.2299 49.9401 91.7164 49.5374C90.2029 49.1326 88.8098 48.4007 87.5394 47.3397L87.0185 46.8327L87.0175 46.8307ZM78.9321 2L85.8788 10.9819L76.9467 18.131L70 9.14911L78.9321 2Z" fill="#DC4B6C"/>
<path d="M-19.3445 39.7195C-17.9221 37.1837 -16.3252 35.2179 -14.5538 33.8234C-12.781 32.4275 -10.9365 31.3313 -9.01879 30.532C-7.10109 29.7341 -5.17918 29.091 -3.24741 28.6042C-1.31424 28.1159 0.579536 27.553 2.43814 26.9141C4.29674 26.2753 5.98651 25.4253 7.50885 24.3587C9.0326 23.2935 10.3664 21.7723 11.506 19.798L23.4118 27.8851L19.6496 33.2042C19.0797 34.1175 18.2074 34.9252 17.0312 35.626C15.855 36.3268 14.5113 37.0008 12.996 37.6481C11.4835 38.294 9.82612 38.9315 8.02521 39.5591C6.2257 40.1867 4.46136 40.8889 2.73361 41.6642C0.512006 42.5043 -1.13696 43.4612 -2.21329 44.5307C-3.28821 45.5987 -4.00858 46.6597 -4.37439 47.7123C-4.85417 48.9351 -4.93577 50.0693 -4.61779 51.1078C-4.29982 52.1491 -3.74688 52.9385 -2.96179 53.4719C-1.1468 54.7032 0.493711 54.9185 1.96399 54.1164C3.43427 53.3157 4.93832 51.4864 6.47473 48.6312L18.9981 57.1362C17.3478 59.7155 15.5032 61.9502 13.4688 63.8442C11.4343 65.7355 9.12826 67.0329 6.55352 67.7337C3.97736 68.4344 1.23237 68.5203 -1.68146 67.9912C-4.59528 67.4607 -7.69624 66.0802 -10.9801 63.8498C-13.0329 62.4553 -14.7916 60.8497 -16.2562 59.0288C-17.7195 57.2093 -18.8535 55.2886 -19.6569 53.2692C-20.4602 51.2499 -20.9034 49.1603 -20.9893 47.0031C-21.0723 44.8459 -20.6741 42.7154 -19.7976 40.6102L-19.3431 39.7195H-19.3445ZM36.3249 10.8554L27.3372 23.6495L14.3031 14.7955L23.2908 2L36.3249 10.854V10.8554Z" fill="#DC4B6C"/>
<path d="M604.9 9.36135C606.539 11.7606 607.592 14.0655 608.056 16.272C608.52 18.4813 608.684 20.6202 608.549 22.693C608.412 24.7644 608.136 26.7752 607.716 28.7213C607.295 30.6703 606.959 32.6178 606.705 34.5668C606.452 36.5157 606.465 38.4084 606.743 40.2462C607.022 42.0853 607.793 43.9555 609.057 45.8538L596.525 52.9347L593.428 47.2018C592.864 46.2858 592.528 45.1445 592.422 43.781C592.316 42.416 592.308 40.9117 592.401 39.2667C592.492 37.6246 592.658 35.8557 592.896 33.9631C593.134 32.0718 593.287 30.1778 593.358 28.2865C593.591 25.9225 593.466 24.0199 592.985 22.5818C592.506 21.1437 591.875 20.0278 591.094 19.2327C590.21 18.2589 589.231 17.6834 588.159 17.5061C587.085 17.3288 586.133 17.4751 585.306 17.9409C583.396 19.0216 582.476 20.3964 582.542 22.0696C582.607 23.7427 583.579 25.9027 585.455 28.5468L572.276 35.995C570.697 33.3706 569.514 30.7266 568.72 28.0628C567.928 25.399 567.789 22.7577 568.305 20.1389C568.82 17.5202 569.963 15.021 571.73 12.6443C573.498 10.2675 576.112 8.10191 579.568 6.14874C581.729 4.92731 583.948 4.06468 586.23 3.55951C588.509 3.05573 590.732 2.8925 592.899 3.0684C595.064 3.24571 597.133 3.77622 599.104 4.65571C601.073 5.53801 602.807 6.84106 604.302 8.56063L604.899 9.36413L604.9 9.36135ZM606.05 72.0653L598.576 58.3313L612.294 50.5791L619.769 64.3146L606.05 72.0653Z" fill="#DC4B6C"/>
<path d="M322.577 95.9107C322.082 96.9773 321.497 97.8202 320.826 98.4394C320.153 99.0586 319.443 99.5581 318.693 99.9394C317.943 100.321 317.187 100.64 316.423 100.896C315.659 101.152 314.911 101.439 314.18 101.756C313.45 102.071 312.795 102.467 312.214 102.944C311.631 103.421 311.14 104.077 310.742 104.91L305.685 102.015L307.039 99.7509C307.24 99.3639 307.568 99.0107 308.021 98.6913C308.474 98.3718 308.996 98.0566 309.587 97.7499C310.178 97.4431 310.826 97.1335 311.534 96.8253C312.24 96.5158 312.931 96.1766 313.605 95.8108C314.476 95.4013 315.112 94.9651 315.513 94.5007C315.915 94.0349 316.171 93.5846 316.287 93.1484C316.443 92.639 316.44 92.1788 316.28 91.7694C316.119 91.3585 315.87 91.0573 315.537 90.8659C314.766 90.4255 314.096 90.3889 313.529 90.759C312.961 91.1277 312.411 91.9129 311.877 93.1146L306.559 90.0695C307.144 88.9775 307.82 88.0178 308.584 87.1904C309.345 86.3644 310.235 85.7691 311.254 85.4061C312.271 85.043 313.376 84.9234 314.57 85.0472C315.763 85.1725 317.058 85.6326 318.452 86.4305C319.324 86.93 320.084 87.5225 320.733 88.2134C321.38 88.9029 321.896 89.6417 322.283 90.4325C322.67 91.2234 322.913 92.0522 323.016 92.9218C323.116 93.7901 323.022 94.6625 322.733 95.5392L322.577 95.9135V95.9107ZM301 109.29L304.232 103.846L309.767 107.015L306.536 112.459L301 109.289V109.29Z" fill="#DC4B6C"/>
<path d="M411.153 20.2255C412.303 19.9765 413.327 19.9343 414.226 20.0961C415.125 20.2593 415.952 20.5239 416.709 20.8911C417.466 21.2584 418.177 21.6693 418.842 22.1224C419.508 22.5769 420.189 23.0005 420.881 23.3917C421.572 23.7829 422.284 24.0672 423.015 24.2431C423.747 24.419 424.566 24.4147 425.471 24.2304L426.215 30.0097L423.594 30.2968C423.165 30.3699 422.685 30.3221 422.157 30.1532C421.63 29.9858 421.063 29.7578 420.46 29.4735C419.858 29.1879 419.221 28.8572 418.548 28.4787C417.874 28.1015 417.188 27.7568 416.49 27.4402C415.639 26.9927 414.907 26.7492 414.294 26.7098C413.68 26.6704 413.167 26.738 412.749 26.9097C412.249 27.0926 411.884 27.3726 411.654 27.7469C411.423 28.1226 411.333 28.5026 411.383 28.8839C411.497 29.7648 411.872 30.3193 412.51 30.55C413.147 30.7808 414.105 30.7456 415.384 30.4445L416.168 36.5235C414.944 36.7163 413.772 36.7571 412.65 36.6473C411.532 36.539 410.52 36.1886 409.616 35.5948C408.712 35.0038 407.95 34.1946 407.328 33.1674C406.707 32.1401 406.292 30.8315 406.087 29.2371C405.957 28.2395 405.973 27.2769 406.132 26.3426C406.291 25.411 406.568 24.5512 406.965 23.766C407.362 22.9808 407.875 22.2857 408.507 21.6792C409.139 21.0755 409.891 20.6238 410.764 20.3255L411.156 20.2241L411.153 20.2255ZM434.842 29.3539L428.552 30.0632L427.736 23.7365L434.026 23.0258L434.841 29.3539H434.842Z" fill="#DC4B6C"/>
<path d="M165.296 95.5192C165.72 96.6157 165.923 97.6213 165.903 98.5342C165.882 99.4482 165.749 100.306 165.505 101.111C165.261 101.915 164.966 102.682 164.621 103.411C164.275 104.139 163.964 104.875 163.685 105.622C163.407 106.367 163.236 107.113 163.176 107.863C163.117 108.613 163.249 109.421 163.572 110.287L157.98 111.922L157.286 109.377C157.149 108.964 157.121 108.484 157.206 107.935C157.289 107.388 157.425 106.792 157.612 106.153C157.8 105.514 158.027 104.833 158.296 104.11C158.565 103.386 158.798 102.653 159.002 101.914C159.311 101.004 159.439 100.243 159.381 99.631C159.325 99.0187 159.179 98.5233 158.943 98.1372C158.685 97.6729 158.352 97.3553 157.946 97.1859C157.538 97.0171 157.149 96.9874 156.781 97.0951C155.928 97.3452 155.439 97.8018 155.31 98.4666C155.181 99.1315 155.365 100.074 155.863 101.289L149.978 103.009C149.598 101.831 149.374 100.679 149.309 99.5538C149.241 98.4327 149.43 97.3788 149.874 96.3937C150.32 95.4081 150.998 94.5292 151.915 93.7541C152.832 92.981 154.062 92.3684 155.603 91.9164C156.568 91.6353 157.522 91.4984 158.468 91.5106C159.414 91.5221 160.305 91.6626 161.142 91.9317C161.981 92.2015 162.746 92.6011 163.444 93.1291C164.139 93.6588 164.702 94.3318 165.134 95.1483L165.296 95.5192ZM159.972 120.341L158.291 114.239L164.413 112.447L166.096 118.551L159.973 120.342L159.972 120.341Z" fill="#DC4B6C"/>
<path d="M39.6333 17.2642C40.6066 16.6023 41.5407 16.1786 42.4343 15.9919C43.3293 15.8065 44.1957 15.7405 45.0351 15.7966C45.8733 15.8542 46.6866 15.9671 47.4741 16.1382C48.2618 16.3107 49.051 16.4477 49.8407 16.552C50.6289 16.655 51.3948 16.6516 52.1384 16.5403C52.8834 16.4288 53.6407 16.1176 54.4104 15.6067L57.2673 20.6859L54.9454 21.9354C54.5737 22.1638 54.1118 22.2978 53.5586 22.3404C53.0068 22.3829 52.3952 22.3855 51.7305 22.3461C51.066 22.3081 50.35 22.2406 49.585 22.1419C48.8188 22.0448 48.0523 21.9817 47.2867 21.9511C46.3293 21.8549 45.5601 21.904 44.9762 22.0974C44.3938 22.2921 43.9416 22.5468 43.6181 22.8618C43.2245 23.2188 42.9898 23.6155 42.9164 24.0475C42.8435 24.4836 42.9036 24.869 43.091 25.2043C43.526 25.9784 44.0833 26.3517 44.7602 26.326C45.4374 26.3016 46.3128 25.9088 47.3854 25.1505L50.3913 30.49C49.3289 31.1282 48.2565 31.6061 47.1769 31.9233C46.099 32.2431 45.0286 32.2959 43.969 32.0868C42.9093 31.8776 41.8982 31.4137 40.937 30.6947C39.9758 29.9756 39.1014 28.9166 38.3124 27.5177C37.8188 26.6413 37.4714 25.7424 37.2685 24.8183C37.0656 23.8957 37.0014 22.9952 37.0758 22.1184C37.1489 21.2418 37.3654 20.4053 37.7236 19.6062C38.0835 18.8098 38.6119 18.11 39.3083 17.5042L39.6331 17.2628L39.6333 17.2642ZM65.0197 16.8423L59.454 19.8599L56.3248 14.2995L61.8907 11.2833L65.0183 16.8425L65.0197 16.8423Z" fill="#DC4B6C"/>
<path d="M103.697 68.8058C103.85 69.9723 103.808 70.9968 103.572 71.8791C103.335 72.7614 103.003 73.5649 102.575 74.2896C102.146 75.0129 101.679 75.6883 101.171 76.3145C100.663 76.9393 100.185 77.5824 99.7376 78.2409C99.2902 78.8981 98.9483 79.5834 98.7133 80.2982C98.477 81.0131 98.4136 81.8307 98.5234 82.7467L92.7028 83.0113L92.6324 80.3742C92.5958 79.9408 92.6831 79.4666 92.8955 78.9544C93.1066 78.4422 93.3781 77.8962 93.713 77.3192C94.0478 76.7437 94.4305 76.1344 94.8625 75.4955C95.293 74.8553 95.694 74.1981 96.0668 73.5297C96.5832 72.7177 96.8871 72.0085 96.9771 71.402C97.0658 70.7927 97.0433 70.2763 96.9054 69.8457C96.7647 69.3321 96.5156 68.9451 96.1611 68.6848C95.8051 68.423 95.4337 68.3034 95.0496 68.3203C94.1632 68.3611 93.5779 68.689 93.2965 69.3053C93.0137 69.9217 92.9687 70.8786 93.1643 72.1774L87.0425 72.4574C86.9511 71.2219 87.0074 70.0497 87.2086 68.9423C87.4083 67.8362 87.8417 66.8568 88.5086 66.0041C89.1727 65.1527 90.0422 64.4576 91.1157 63.9229C92.1906 63.3896 93.5301 63.0842 95.134 63.011C96.1386 62.966 97.0981 63.0589 98.0155 63.2939C98.93 63.5289 99.7629 63.8764 100.511 64.3366C101.263 64.7967 101.911 65.3666 102.463 66.0449C103.012 66.7246 103.4 67.5126 103.626 68.4062L103.695 68.8058H103.697ZM92.6437 91.6626L92.4551 85.3345L98.8287 85.0447L99.0158 91.3728L92.6437 91.6626Z" fill="#DC4B6C"/>
<path d="M615.858 93.6636C615.657 94.823 615.312 95.7884 614.824 96.5603C614.336 97.3323 613.779 98.0005 613.155 98.5651C612.53 99.1279 611.883 99.6337 611.212 100.08C610.541 100.526 609.893 100.997 609.27 101.493C608.647 101.987 608.117 102.539 607.68 103.152C607.241 103.764 606.938 104.526 606.77 105.433L601.134 103.953L601.852 101.414C601.946 100.99 602.17 100.563 602.526 100.137C602.88 99.711 603.301 99.2706 603.793 98.8195C604.284 98.3697 604.83 97.9019 605.433 97.4206C606.035 96.9375 606.613 96.4295 607.168 95.9023C607.903 95.2809 608.404 94.6943 608.67 94.1421C608.936 93.5868 609.068 93.087 609.065 92.6349C609.084 92.1027 608.961 91.6591 608.7 91.3051C608.438 90.9492 608.119 90.7245 607.747 90.6263C606.889 90.4014 606.233 90.5402 605.781 91.0449C605.327 91.5491 604.999 92.4492 604.799 93.7474L598.872 92.1925C599.152 90.9858 599.555 89.8835 600.077 88.8861C600.597 87.8897 601.302 87.0837 602.192 86.4681C603.08 85.853 604.117 85.4482 605.301 85.2572C606.486 85.068 607.855 85.1752 609.408 85.5828C610.381 85.8388 611.269 86.2131 612.075 86.7105C612.878 87.207 613.57 87.7868 614.147 88.4489C614.728 89.1118 615.177 89.8489 615.502 90.6606C615.823 91.4728 615.96 92.3407 615.91 93.2612L615.857 93.6632L615.858 93.6636ZM598.503 112.194L600.206 106.097L606.377 107.717L604.672 113.814L598.503 112.194Z" fill="#DC4B6C"/>
<path d="M192.432 5.97855C193.394 6.654 194.12 7.37869 194.61 8.14982C195.1 8.92096 195.467 9.70899 195.71 10.5139C195.952 11.3188 196.134 12.1195 196.252 12.9174C196.369 13.7152 196.519 14.5018 196.699 15.2772C196.881 16.0512 197.154 16.7674 197.521 17.4232C197.888 18.0803 198.447 18.6798 199.197 19.2187L195.454 23.6851L193.465 21.9529C193.12 21.6855 192.832 21.3013 192.598 20.799C192.363 20.2966 192.146 19.7267 191.947 19.0907C191.748 18.4546 191.56 17.7609 191.381 17.0094C191.201 16.2594 190.988 15.5192 190.748 14.7917C190.499 13.8616 190.184 13.1594 189.797 12.6824C189.408 12.2053 189.012 11.8732 188.602 11.6819C188.128 11.4384 187.675 11.3596 187.244 11.444C186.811 11.5299 186.471 11.7213 186.224 12.0154C185.655 12.6964 185.501 13.3494 185.764 13.9727C186.026 14.5975 186.701 15.2786 187.789 16.0132L183.854 20.7103C182.881 19.942 182.057 19.1076 181.377 18.2098C180.698 17.3148 180.27 16.3326 180.093 15.2645C179.916 14.1993 179.992 13.089 180.325 11.9366C180.66 10.7841 181.341 9.59079 182.372 8.35951C183.018 7.58978 183.736 6.94528 184.529 6.42884C185.321 5.91382 186.14 5.53529 186.986 5.29607C187.833 5.05404 188.691 4.96116 189.565 5.01464C190.437 5.06952 191.278 5.31718 192.09 5.75482L192.431 5.97433L192.432 5.97855ZM201.785 29.5826L196.999 25.4413L201.098 20.5499L205.884 24.6927L201.787 29.5826H201.785Z" fill="#DC4B6C"/>
<path d="M23.7774 111.86C22.7686 111.256 21.9919 110.586 21.4474 109.853C20.9029 109.118 20.4794 108.36 20.1784 107.575C19.8787 106.79 19.6395 106.004 19.4636 105.218C19.2891 104.43 19.0823 103.657 18.8445 102.897C18.6068 102.139 18.2832 101.445 17.8695 100.816C17.4559 100.187 16.8551 99.6298 16.0686 99.1472L19.4763 94.4205L21.5867 96.0021C21.9497 96.2442 22.2663 96.6072 22.5364 97.0913C22.8066 97.5754 23.0654 98.127 23.3103 98.7475C23.5537 99.3681 23.7929 100.046 24.025 100.782C24.26 101.517 24.5245 102.24 24.8171 102.948C25.1323 103.857 25.4995 104.535 25.9202 104.983C26.3409 105.43 26.7615 105.734 27.185 105.893C27.6747 106.101 28.1319 106.147 28.5554 106.031C28.9817 105.914 29.3067 105.699 29.5319 105.387C30.051 104.666 30.1566 104.003 29.8484 103.4C29.5417 102.795 28.8185 102.166 27.6803 101.511L31.2624 96.5397C32.2881 97.2362 33.1703 98.0074 33.9132 98.8545C34.6574 99.6974 35.1541 100.646 35.4088 101.697C35.6634 102.747 35.6676 103.86 35.42 105.033C35.171 106.207 34.5787 107.447 33.6388 108.75C33.0507 109.565 32.3824 110.258 31.6282 110.832C30.8755 111.404 30.0862 111.84 29.2589 112.141C28.433 112.444 27.5832 112.6 26.7081 112.61C25.8344 112.618 24.9775 112.434 24.1347 112.055L23.7788 111.861L23.7774 111.86ZM12.7313 89L17.8076 92.7825L14.0763 97.9581L9 94.1742L12.7313 89Z" fill="#DC4B6C"/>
<path d="M550.777 41.8597C549.769 41.256 548.992 40.5862 548.447 39.853C547.903 39.1185 547.479 38.36 547.178 37.5748C546.879 36.7896 546.639 36.0044 546.464 35.2178C546.289 34.4297 546.082 33.6572 545.845 32.8973C545.607 32.1389 545.283 31.4451 544.87 30.8161C544.456 30.1871 543.855 29.6298 543.069 29.1472L546.476 24.4205L548.587 26.0021C548.95 26.2442 549.266 26.6072 549.536 27.0913C549.807 27.5754 550.065 28.127 550.31 28.7475C550.554 29.3681 550.793 30.0464 551.025 30.7823C551.26 31.5169 551.524 32.2402 551.817 32.948C552.132 33.857 552.499 34.5353 552.92 34.9828C553.341 35.4302 553.762 35.7342 554.185 35.8932C554.675 36.1015 555.132 36.1465 555.555 36.0311C555.982 35.9143 556.307 35.699 556.532 35.3866C557.051 34.6661 557.157 34.0034 556.848 33.3997C556.542 32.7946 555.819 32.1656 554.68 31.5113L558.262 26.5397C559.288 27.2362 560.17 28.0074 560.913 28.8545C561.657 29.6974 562.154 30.6458 562.409 31.697C562.663 32.7468 562.668 33.8598 562.42 35.0334C562.171 36.207 561.579 37.4467 560.639 38.7498C560.051 39.5645 559.382 40.2583 558.628 40.8324C557.876 41.4037 557.086 41.84 556.259 42.1411C555.433 42.4436 554.583 42.5998 553.708 42.6097C552.834 42.6181 551.978 42.4338 551.135 42.0553L550.779 41.8611L550.777 41.8597ZM539.731 19L544.808 22.7825L541.076 27.9581L536 24.1742L539.731 19Z" fill="#DC4B6C"/>
<path d="M511.041 66.6989C512.037 68.9463 512.558 71.0233 512.608 72.927C512.655 74.8365 512.464 76.6373 512.034 78.3383C511.602 80.0393 511.065 81.6697 510.418 83.2209C509.771 84.775 509.192 86.3437 508.684 87.9243C508.176 89.5048 507.893 91.0794 507.846 92.6482C507.796 94.2199 508.152 95.8915 508.913 97.663L497.407 101.632L495.708 96.3939C495.379 95.5449 495.273 94.546 495.397 93.3944C495.514 92.2428 495.74 90.9884 496.07 89.637C496.399 88.2856 496.804 86.8431 497.292 85.3067C497.78 83.7702 498.195 82.222 498.547 80.6562C499.1 78.729 499.291 77.128 499.112 75.8588C498.932 74.5897 498.58 73.5674 498.051 72.7859C497.466 71.8429 496.737 71.2142 495.873 70.9028C495.006 70.5914 494.194 70.565 493.433 70.8294C491.682 71.4346 490.703 72.4363 490.503 73.8377C490.3 75.236 490.779 77.1838 491.934 79.6662L479.831 83.8407C478.917 81.4171 478.338 79.0375 478.089 76.702C477.836 74.3694 478.124 72.1484 478.956 70.0509C479.784 67.9504 481.116 66.0496 482.95 64.3457C484.787 62.6418 487.291 61.2405 490.462 60.1447C492.446 59.4602 494.424 59.0841 496.402 59.0136C498.374 58.9431 500.249 59.1459 502.024 59.6247C503.799 60.1036 505.439 60.8586 506.944 61.8927C508.449 62.9297 509.689 64.2752 510.671 65.935L511.044 66.6959L511.041 66.6989ZM502.4 119L498.286 106.438L510.882 102.093L515 114.655L502.403 118.997L502.4 119Z" fill="#DC4B6C"/>
<path d="M531.168 14.0344C531.116 15.8426 530.802 17.3877 530.227 18.6682C529.653 19.9502 528.952 21.0872 528.125 22.0806C527.298 23.0741 526.424 23.9832 525.5 24.8106C524.575 25.6366 523.693 26.495 522.853 27.3843C522.013 28.2723 521.326 29.2291 520.795 30.2564C520.263 31.2836 519.966 32.5079 519.908 33.9249L511.009 32.9033L511.548 28.8844C511.6 28.2174 511.846 27.5194 512.292 26.7933C512.738 26.0672 513.286 25.3073 513.934 24.5136C514.581 23.72 515.312 22.8898 516.123 22.0244C516.934 21.1589 517.703 20.2612 518.432 19.3352C519.414 18.2306 520.048 17.2273 520.333 16.3267C520.617 15.4275 520.709 14.6338 520.606 13.9485C520.517 13.1352 520.236 12.4879 519.761 12.0052C519.285 11.5225 518.752 11.2481 518.164 11.1792C516.809 11.0244 515.842 11.3804 515.262 12.2458C514.684 13.1127 514.383 14.555 514.359 16.5729L505 15.4993C505.166 13.601 505.536 11.8364 506.113 10.204C506.688 8.57451 507.586 7.19406 508.803 6.06409C510.02 4.93413 511.509 4.09404 513.269 3.54383C515.029 2.99643 517.137 2.86135 519.59 3.14278C521.125 3.31868 522.558 3.69722 523.891 4.27839C525.224 4.85815 526.403 5.58988 527.43 6.47218C528.454 7.35448 529.303 8.3775 529.972 9.54264C530.641 10.7092 531.037 11.9968 531.161 13.411L531.168 14.0344ZM508.806 46.0196L510.068 36.3706L519.81 37.4893L518.548 47.1397L508.806 46.021V46.0196Z" fill="#DC4B6C"/>
<path d="M458.72 117.205C456.915 117.1 455.38 116.743 454.115 116.131C452.852 115.519 451.735 114.787 450.767 113.931C449.797 113.076 448.914 112.175 448.115 111.227C447.316 110.278 446.483 109.372 445.62 108.507C444.756 107.641 443.821 106.928 442.809 106.365C441.797 105.802 440.585 105.471 439.168 105.373L440.447 96.5049L444.448 97.1592C445.114 97.2296 445.803 97.4984 446.516 97.9655C447.228 98.4327 447.971 98.9998 448.746 99.6725C449.52 100.342 450.329 101.097 451.171 101.932C452.012 102.77 452.886 103.563 453.79 104.319C454.867 105.332 455.852 105.995 456.742 106.304C457.634 106.615 458.422 106.729 459.112 106.646C459.926 106.582 460.582 106.319 461.079 105.857C461.574 105.395 461.864 104.871 461.949 104.285C462.144 102.934 461.816 101.958 460.967 101.354C460.118 100.749 458.685 100.407 456.669 100.325L458.013 91C459.905 91.2195 461.66 91.6417 463.272 92.2651C464.886 92.887 466.239 93.8242 467.332 95.0738C468.427 96.3234 469.222 97.8361 469.723 99.6119C470.22 101.388 470.293 103.499 469.941 105.944C469.721 107.474 469.301 108.895 468.683 110.211C468.064 111.525 467.299 112.683 466.388 113.684C465.478 114.683 464.43 115.5 463.247 116.136C462.062 116.771 460.763 117.13 459.345 117.213L458.723 117.202L458.72 117.205ZM427.4 93.9227L437.007 95.4636L435.607 105.172L426 103.632L427.4 93.9241V93.9227Z" fill="#DC4B6C"/>
<path d="M273.548 71.5866C274.987 73.3052 275.968 74.9944 276.488 76.654C277.01 78.3148 277.295 79.9449 277.346 81.5446C277.396 83.1452 277.335 84.7078 277.157 86.2317C276.98 87.7579 276.867 89.2784 276.819 90.792C276.771 92.3057 276.921 93.757 277.273 95.1472C277.624 96.5363 278.356 97.9146 279.468 99.2755L270.38 105.647L267.575 101.48C267.072 100.819 266.73 99.9681 266.546 98.9288C266.361 97.8895 266.243 96.7356 266.192 95.4674C266.14 94.199 266.134 92.8305 266.175 91.3608C266.216 89.8911 266.192 88.427 266.105 86.971C266.108 85.139 265.869 83.6889 265.392 82.62C264.916 81.5523 264.349 80.7438 263.689 80.1911C262.939 79.5108 262.144 79.1423 261.308 79.0869C260.471 79.0315 259.75 79.214 259.151 79.6341C257.765 80.6054 257.161 81.7291 257.338 83.0075C257.513 84.2868 258.42 85.8718 260.058 87.7613L250.499 94.4615C249.092 92.5672 247.985 90.6259 247.178 88.6418C246.371 86.6567 246.066 84.6388 246.267 82.5918C246.466 80.5424 247.155 78.5408 248.336 76.5838C249.517 74.629 251.359 72.7704 253.866 71.0135C255.433 69.915 257.071 69.0872 258.786 68.5285C260.497 67.9716 262.191 67.6801 263.869 67.6529C265.544 67.6288 267.17 67.8789 268.75 68.4079C270.328 68.9378 271.755 69.8073 273.032 71.0152L273.549 71.5867L273.548 71.5866ZM279.123 119.614L272.358 109.635L282.308 102.66L289.072 112.64L279.123 119.614Z" fill="#DC4B6C"/>
<path d="M583.106 99.5634C583.025 102.476 582.523 104.967 581.599 107.031C580.675 109.097 579.547 110.93 578.218 112.531C576.887 114.132 575.48 115.601 573.993 116.931C572.505 118.264 571.085 119.647 569.733 121.079C568.381 122.511 567.277 124.054 566.42 125.71C565.564 127.365 565.089 129.338 564.999 131.622L550.659 129.989L551.52 123.514C551.6 122.437 552.001 121.314 552.717 120.144C553.434 118.973 554.313 117.747 555.357 116.469C556.4 115.19 557.574 113.852 558.881 112.457C560.188 111.061 561.426 109.615 562.597 108.123C564.179 106.342 565.197 104.724 565.654 103.273C566.111 101.823 566.257 100.547 566.09 99.4403C565.947 98.1313 565.491 97.0874 564.724 96.3126C563.957 95.5367 563.098 95.0929 562.152 94.9854C559.966 94.7365 558.409 95.3092 557.48 96.7066C556.547 98.1029 556.064 100.428 556.029 103.679L540.947 101.961C541.211 98.9039 541.807 96.0598 542.731 93.4324C543.657 90.804 545.1 88.577 547.06 86.7572C549.021 84.9345 551.418 83.5799 554.254 82.6927C557.089 81.8074 560.485 81.5866 564.439 82.0371C566.912 82.3185 569.22 82.9253 571.371 83.8597C573.517 84.7929 575.418 85.9697 577.074 87.3891C578.726 88.8103 580.094 90.4557 581.175 92.3321C582.254 94.2085 582.894 96.2853 583.096 98.5618L583.107 99.5644L583.106 99.5634ZM547.128 151.123L549.146 135.576L564.845 137.364L562.826 152.912L547.128 151.123Z" fill="#DC4B6C"/>
<path d="M422.346 87.2346C420.312 89.7447 418.191 91.5974 415.986 92.7919C413.781 93.988 411.554 94.8423 409.303 95.3556C407.053 95.8689 404.823 96.2113 402.617 96.3829C400.407 96.5543 398.226 96.8154 396.071 97.1637C393.915 97.5143 391.903 98.1281 390.034 99.0082C388.164 99.8883 386.417 101.304 384.797 103.252L373.276 92.1526L378.399 87.0335C379.195 86.141 380.303 85.4197 381.724 84.8744C383.144 84.3276 384.744 83.8419 386.525 83.4182C388.305 82.9945 390.241 82.6089 392.333 82.2599C394.422 81.9116 396.488 81.4754 398.526 80.9488C401.118 80.4456 403.104 79.709 404.485 78.7406C405.865 77.7714 406.852 76.7459 407.452 75.6619C408.208 74.4127 408.51 73.1872 408.359 71.9879C408.206 70.7869 407.75 69.8193 406.988 69.0865C405.232 67.3957 403.475 66.852 401.714 67.4536C399.953 68.0552 397.96 69.7757 395.739 72.6135L383.622 60.9399C385.915 58.4259 388.356 56.3239 390.942 54.6339C393.528 52.9438 396.298 51.9567 399.252 51.674C402.205 51.3914 405.229 51.8138 408.323 52.9437C411.416 54.0736 414.553 56.1678 417.731 59.2287C419.718 61.1432 421.342 63.2342 422.603 65.5019C423.864 67.7703 424.745 70.0881 425.244 72.452C425.743 74.8167 425.836 77.1871 425.524 79.5664C425.209 81.9465 424.373 84.2053 423.016 86.3454L422.348 87.2355L422.346 87.2346ZM355.921 108.378L368.177 96.0544L380.79 108.205L368.533 120.53L355.92 108.379L355.921 108.378Z" fill="#DC4B6C"/>
<path d="M55.5666 36.0576C58.6 35.8606 61.5715 36.1688 64.4769 36.9835C67.3851 37.8011 70.0499 39.2477 72.4713 41.3219L73.4604 42.3125C76.2209 45.2972 78.1484 48.2691 79.2416 51.2298C80.3362 54.192 81.0003 57.1203 81.2367 60.0135C81.4731 62.9094 81.4998 65.7477 81.3169 68.5283C81.134 71.3103 81.0679 74.0754 81.1157 76.8237C81.1649 79.5719 81.5687 82.1878 82.3313 84.6743C83.0925 87.1622 84.5417 89.5924 86.6788 91.9593L70.7886 104.324L65.3309 97.0237C64.3615 95.8727 63.6623 94.3628 63.2374 92.4954C62.8111 90.6281 62.4931 88.5483 62.2849 86.2532C62.0752 83.9595 61.9416 81.4786 61.8839 78.8106C61.8262 76.144 61.6517 73.4929 61.3619 70.86C61.2001 67.5419 60.6387 64.9344 59.6791 63.0417C58.7196 61.1491 57.6194 59.7348 56.377 58.7934C54.956 57.6283 53.4829 57.0316 51.9619 57.0063C50.4396 56.981 49.1522 57.3764 48.1026 58.194C45.6826 60.0782 44.6893 62.1693 45.1241 64.4714C45.5574 66.7736 47.3443 69.564 50.479 72.8399L33.7656 85.8451C31.046 82.5382 28.8652 79.1202 27.2232 75.5952C25.5813 72.0716 24.8497 68.4439 25.0256 64.7149C25.2028 60.9844 26.2721 57.2934 28.2334 53.6417C30.1934 49.9915 33.3661 46.4581 37.7488 43.0471C40.4895 40.9152 43.3851 39.2674 46.4382 38.1022C49.4899 36.9371 52.5332 36.256 55.568 36.0576" fill="#DC4B6C"/>
<path d="M87.886 128.85L74.7323 111.374L92.1308 97.8357L105.285 115.314L87.886 128.85Z" fill="#DC4B6C"/>
</g>
</svg>
